SplineFontDB: 3.0
FontName: Untitled
FullName: Untitled
FamilyName: Untitled Medium
Weight: Normal
Copyright: 
Version: 
ItalicAngle: 0
UnderlinePosition: 0
UnderlineWidth: 0
Ascent: 1536
Descent: 512
UFOAscent: 1536
UFODescent: -512
LayerCount: 2
Layer: 0 0 "Back"  1
Layer: 1 0 "Fore"  0
NeedsXUIDChange: 1
FSType: 1
OS2Version: 0
OS2_WeightWidthSlopeOnly: 0
OS2_UseTypoMetrics: 0
CreationTime: 1337328194
ModificationTime: 1337344128
PfmFamily: 0
TTFWeight: 400
TTFWidth: 5
LineGap: 0
VLineGap: 0
Panose: 0 0 0 0 0 0 0 0 0 0
OS2TypoAscent: 0
OS2TypoAOffset: 1
OS2TypoDescent: 0
OS2TypoDOffset: 1
OS2TypoLinegap: 0
OS2WinAscent: 0
OS2WinAOffset: 0
OS2WinDescent: 0
OS2WinDOffset: 0
HheadAscent: 0
HheadAOffset: 1
HheadDescent: 0
HheadDOffset: 1
OS2SubXSize: 700
OS2SubYSize: 650
OS2SubXOff: 0
OS2SubYOff: 140
OS2SupXSize: 700
OS2SupYSize: 650
OS2SupXOff: 0
OS2SupYOff: 477
OS2StrikeYSize: 50
OS2StrikeYPos: 250
OS2Vendor: 'pyrs'
Lookup: 258 0 0 "'kern' Horizontal Kerning in Latin lookup 0"  {"'kern' Horizontal Kerning in Latin lookup 0-1" [360,30,2] } ['kern' ('DFLT' <'dflt' > 'latn' <'dflt' > ) ]
MarkAttachClasses: 1
DEI: 91125
PickledData: "(dp1
S'com.typemytype.robofont.foreground.layerStrokeColor'
p2
(F0.5
F0
F0.5
F0.69999999999999996
tp3
sS'com.typemytype.robofont.guides'
p4
((dp5
S'angle'
p6
I0
sS'name'
p7
NsS'magnetic'
p8
I5
sS'isGlobal'
p9
I1
sS'y'
I1004
sS'x'
I677
s(dp10
g6
I0
sg7
Nsg8
I5
sg9
I1
sS'y'
I1274
sS'x'
I673
s(dp11
g6
I0
sg7
Nsg8
I5
sg9
I1
sS'y'
I238
sS'x'
I668
s(dp12
g6
I0
sg7
Nsg8
I5
sg9
I1
sS'y'
I-33
sS'x'
I667
stp13
sS'com.typemytype.robofont.back.layerStrokeColor'
p14
(F0.5
F1
F0
F0.69999999999999996
tp15
sS'com.typemytype.robofont.layerOrder'
p16
(S'back'
tp17
sS'com.typemytype.robofont.segmentType'
p18
S'curve'
p19
sS'org.robofab.glyphOrder'
p20
(S'E'
S'M'
S'O'
S'R'
S'T'
S'o'
S'space'
tp21
sS'com.typemytype.robofont.sort'
p22
((dp23
S'allowPseudoUnicode'
p24
I01
sS'type'
p25
S'alphabetical'
p26
sS'ascending'
p27
I01
s(dp28
g24
I01
sg25
S'category'
p29

StartChar: C
Encoding: 35 67 0
Width: 1316
VWidth: 0
Flags: HW
PickledData: "(dp1
S'com.typemytype.robofont.layerData'
p2
(dp3
s."
LayerCount: 2
Back
SplineSet
401.711914062 619.784179688 m 0
 401.711914062 878.774414062 579.701171875 1008.93164062 757.482421875 1008.93164062 c 0
 934.846679688 1008.93164062 1112.00585938 879.381835938 1112.00585938 618.966796875 c 0
 1112.00585938 362.655273438 934.029296875 233.85546875 756.254882812 233.85546875 c 0
 578.8828125 233.85546875 401.711914062 362.072265625 401.711914062 619.784179688 c 0
92 621.251953125 m 0
 92 185.624023438 424.857421875 -33.20703125 757.50390625 -33.20703125 c 0
 1089.72753906 -33.20703125 1421.73925781 185.068359375 1421.73925781 623.646484375 c 0
 1421.73925781 1057.61425781 1088.88476562 1275.61132812 756.239257812 1275.61132812 c 0
 424.014648438 1275.61132812 92 1058.1640625 92 621.251953125 c 0
EndSplineSet
Fore
SplineSet
94 622 m 0
 94 1026 381 1275 769 1275 c 0
 997 1275 1190 1174 1190 1174 c 5
 1190 887 l 5
 1081 966 937 1014 800 1014 c 0
 591 1014 404 906 404 622 c 0
 404 339 591 228 800 228 c 0
 937 228 1081 276 1190 355 c 5
 1190 68 l 5
 1190 68 997 -33 769 -33 c 0
 381 -33 94 219 94 622 c 0
EndSplineSet
EndChar

StartChar: E
Encoding: 37 69 1
Width: 994
VWidth: 0
Flags: HW
LayerCount: 2
Fore
SplineSet
148 1241 m 1
 871 1241 l 1
 871 985 l 1
 442 985 l 1
 442 764 l 1
 805 764 l 1
 805 512 l 1
 440 512 l 1
 440 266 l 1
 881 266 l 1
 881 0 l 1
 148 0 l 1
 148 1241 l 1
EndSplineSet
EndChar

StartChar: M
Encoding: 45 77 2
Width: 1681
VWidth: 0
Flags: HW
LayerCount: 2
Fore
SplineSet
841 449 m 1
 1375 1311 l 1
 1600 0 l 1
 1316 0 l 1
 1224 577 l 1
 841 -27 l 1
 458 577 l 1
 365 0 l 1
 81 0 l 1
 306 1311 l 1
 841 449 l 1
EndSplineSet
EndChar

StartChar: O
Encoding: 47 79 3
Width: 1536
VWidth: 0
Flags: HW
PickledData: "(dp1
S'com.typemytype.robofont.guides'
p2
((dp3
S'angle'
p4
I0
sS'name'
p5
NsS'magnetic'
p6
I5
sS'isGlobal'
p7
I00
sS'y'
I626
sS'x'
I354
stp8
sS'com.typemytype.robofont.layerData'
p9
(dp10
S'back'
p11
(dp12
g5
S'O'
sS'lib'
p13
(dp14
sS'unicodes'
p15
(tsS'width'
p16
I1327
sS'contours'
p17
((dp18
S'points'
p19
((dp20
S'segmentType'
p21
S'curve'
p22
sS'x'
F663
sS'smooth'
p23
I01
sS'y'
F238
s(dp24
S'y'
F238
sS'x'
F878
sg23
I00
s(dp25
S'y'
F422
sS'x'
F978
sg23
I00
s(dp26
g21
S'curve'
p27
sS'x'
F978
sg23
I01
sS'y'
F623
s(dp28
S'y'
F811
sS'x'
F978
sg23
I00
s(dp29
S'y'
F1004
sS'x'
F871
sg23
I00
s(dp30
g21
S'curve'
p31
sS'x'
F663
sg23
I01
sS'y'
F1004
s(dp32
S'y'
F1004
sS'x'
F456
sg23
I00
s(dp33
S'y'
F811
sS'x'
F349
sg23
I00
s(dp34
g21
S'curve'
p35
sS'x'
F349
sg23
I01
sS'y'
F623
s(dp36
S'y'
F422
sS'x'
F349
sg23
I00
s(dp37
S'y'
F238
sS'x'
F450
sg23
I00
stp38
s(dp39
g19
((dp40
g21
S'curve'
p41
sS'x'
F663
sg23
I01
sS'y'
F1274
s(dp42
S'y'
F1274
sS'x'
F1019
sg23
I00
s(dp43
S'y'
F995
sS'x'
F1291
sg23
I00
s(dp44
g21
S'curve'
p45
sS'x'
F1291
sg23
I01
sS'y'
F623
s(dp46
S'y'
F246
sS'x'
F1291
sg23
I00
s(dp47
S'y'
F-33
sS'x'
F1029
sg23
I00
s(dp48
g21
S'curve'
p49
sS'x'
F663
sg23
I01
sS'y'
F-33
s(dp50
S'y'
F-33
sS'x'
F298
sg23
I00
s(dp51
S'y'
F246
sS'x'
F36
sg23
I00
s(dp52
g21
S'curve'
p53
sS'x'
F36
sg23
I01
sS'y'
F623
s(dp54
S'y'
F995
sS'x'
F36
sg23
I00
s(dp55
S'y'
F1274
sS'x'
F308
sg23
I00
stp56
stp57
sS'components'
p58
(tsS'anchors'
p59
((dp60
S'y'
F1241
sS'x'
F664
sg5
S'top'
p61
stp62
sss."
LayerCount: 2
Fore
SplineSet
94 621 m 0
 94 1058 426 1276 758 1276 c 0
 1091 1276 1424 1058 1424 624 c 0
 1424 185 1091 -33 759 -33 c 0
 426 -33 94 185 94 621 c 0
404 620 m 0
 404 362 581 226 758 226 c 4
 936 226 1114 363 1114 619 c 0
 1114 879 936 1017 759 1017 c 0
 581 1017 404 879 404 620 c 0
EndSplineSet
EndChar

StartChar: R
Encoding: 50 82 4
Width: 1189
VWidth: 0
Flags: HW
LayerCount: 2
Fore
SplineSet
468 1048 m 2
 448 1048 l 1
 448 675 l 1
 472 675 l 2
 591 675 702 758 702 873 c 0
 702 976 623 1048 468 1048 c 2
450 0 m 1
 148 0 l 1
 148 1242 l 1
 514 1242 l 2
 765.5 1242 986 1138 986 878 c 0
 986 741 900 618 730 574 c 1
 1146 0 l 1
 802 0 l 1
 452 522 l 1
 450 522 l 1
 450 0 l 1
EndSplineSet
EndChar

StartChar: T
Encoding: 52 84 5
Width: 1173
VWidth: 0
Flags: HW
LayerCount: 2
Fore
SplineSet
429 0 m 5
 429 973 l 5
 64 973 l 5
 64 1241 l 5
 1102 1241 l 5
 1102 973 l 5
 737 973 l 5
 737 0 l 5
 429 0 l 5
EndSplineSet
EndChar

StartChar: o
Encoding: 79 111 6
Width: 1161
VWidth: 0
Flags: HW
LayerCount: 2
Back
SplineSet
787.158203125 443 m 0
 787.158203125 312.631835938 692.171875 181 556.017578125 181 c 0
 419.89453125 181 326.841796875 312.58203125 326.841796875 443 c 0
 326.841796875 576.458007812 419.852539062 697 556.017578125 697 c 0
 693.180664062 697 787.158203125 575.411132812 787.158203125 443 c 0
72 443 m 0
 72 163.299804688 286.076171875 -25 556.017578125 -25 c 0
 825.908203125 -25 1042 163.276367188 1042 443 c 0
 1042 721.737304688 824.889648438 903 556.017578125 903 c 0
 286.083984375 903 72 720.696289062 72 443 c 0
EndSplineSet
Fore
SplineSet
573 697 m 4
 415 697 337 567 337 439 c 4
 337 309 417 181 573 181 c 4
 729 181 809 309 809 439 c 4
 809 567 731 697 573 697 c 4
573 -25 m 4
 303 -25 89 161 89 441 c 4
 89 719 303 903 573 903 c 4
 843 903 1057 719 1057 441 c 4
 1057 161 843 -25 573 -25 c 4
EndSplineSet
EndChar

StartChar: H
Encoding: 40 72 8
Width: 1333
VWidth: 0
Flags: HW
LayerCount: 2
Fore
SplineSet
875 0 m 1
 875 518 l 1
 456 518 l 1
 456 0 l 1
 148 0 l 1
 148 1241 l 1
 456 1241 l 1
 456 786 l 1
 875 786 l 1
 875 1241 l 1
 1183 1241 l 1
 1183 0 l 1
 875 0 l 1
EndSplineSet
EndChar

StartChar: A
Encoding: 33 65 10
Width: 1326
VWidth: 0
Flags: HW
LayerCount: 2
Back
SplineSet
868 449 m 5
 1402 1311 l 5
 1607 0 l 5
 1343 0 l 5
 1251 569 l 5
 868 -27 l 5
 485 569 l 5
 392 0 l 5
 128 0 l 5
 333 1311 l 5
 868 449 l 5
EndSplineSet
Fore
SplineSet
556 474 m 1
 768 474 l 1
 657 737 l 1
 556 474 l 1
57 0 m 1
 654 1311 l 1
 1274 0 l 1
 955 0 l 1
 823 290 l 1
 503 290 l 1
 382 0 l 1
 57 0 l 1
EndSplineSet
EndChar

StartChar: S
Encoding: 51 83 11
Width: 981
VWidth: 0
Flags: HMW
LayerCount: 2
Back
SplineSet
132 90 m 6
 132 361 l 5
 132 361 347 213 481 213 c 4
 559 213 601 252 601 316 c 4
 601 348 599.333984375 376.790039062 510 442 c 6
 273 615 l 6
 163 695 105 817 105 923 c 4
 105 1106 238 1277 487 1277 c 4
 686 1277 830 1193.40332031 830 1187 c 6
 830 926 l 5
 830 926 641 1019 515 1019 c 4
 412 1019 396 974 396 933 c 4
 396 902 418.39453125 854.170898438 477 812 c 6
 666 676 l 6
 820 565 881 453 881 324 c 4
 881 85 710 -33 520 -33 c 4
 281 -33 132 82.189453125 132 90 c 6
EndSplineSet
Fore
SplineSet
129 355 m 2
 129.680664062 354.729492188 346.665039062 216.91015625 482.78125 216.91015625 c 0
 560.96484375 216.91015625 595 253.770507812 595 316 c 0
 595 348 593.333984375 376.790039062 504 442 c 10
 270 615 l 18
 160.629882812 695.858398438 102 819 102 925 c 0
 102 1108 228 1277 477 1277 c 0
 676 1277 827 1193.40332031 827 1187 c 2
 827 933 l 1
 827 933 644 1026 518 1026 c 0
 415 1026 397 973 397 932 c 0
 397 901 420.50390625 854.671875 478 811 c 10
 661 672 l 18
 812.170898438 557.17578125 882 449 882 320 c 0
 882 81 717 -33 527 -33 c 0
 277.5 -33 129 89.8330078125 129 90 c 10
 129 355 l 2
EndSplineSet
EndChar

StartChar: U
Encoding: -1 85 12
Width: 1402
VWidth: 0
Flags: HW
LayerCount: 2
Fore
SplineSet
690 -33 m 0
 373 -33 122 142 122 493 c 2
 122 1241 l 1
 414 1241 l 1
 414 500 l 2
 414 293 529 202 690 202 c 0
 851 202 966 293 966 500 c 2
 966 1241 l 1
 1258 1241 l 1
 1258 493 l 2
 1258 142 1007 -33 690 -33 c 0
EndSplineSet
EndChar

StartChar: D
Encoding: 36 68 13
Width: 1429
VWidth: 0
Flags: HW
LayerCount: 2
Back
SplineSet
-8.7001953125 621 m 0
 -8.7001953125 1058 323.299804688 1276 655.299804688 1276 c 0
 988.299804688 1276 1321.29980469 1058 1321.29980469 624 c 0
 1321.29980469 185 988.299804688 -33 656.299804688 -33 c 0
 323.299804688 -33 -8.7001953125 185 -8.7001953125 621 c 0
301.299804688 620 m 0
 301.299804688 362 478.299804688 234 655.299804688 234 c 0
 833.299804688 234 1011.29980469 363 1011.29980469 619 c 0
 1011.29980469 879 833.299804688 1009 656.299804688 1009 c 0
 478.299804688 1009 301.299804688 879 301.299804688 620 c 0
EndSplineSet
Fore
SplineSet
442 229 m 1
 629 229 l 2
 891 229 1010.29980469 388.5 1010.29980469 623 c 0
 1010.29980469 823.5 894 1013 670 1013 c 2
 442 1013 l 1
 442 229 l 1
148 0 m 1
 148 1241 l 1
 691 1241 l 2
 1097 1241 1317 984 1317 626 c 0
 1317 296 1081 0 664 0 c 2
 148 0 l 1
EndSplineSet
EndChar

StartChar: U
Encoding: 53 85 14
Width: 1345
VWidth: 0
Flags: HW
LayerCount: 2
Fore
SplineSet
667 -33 m 0
 350 -33 129 147 129 498 c 2
 129 1241 l 1
 421 1241 l 1
 421 505 l 2
 421 298 506 202 667 202 c 0
 828 202 913 298 913 505 c 2
 913 1241 l 1
 1205 1241 l 1
 1205 498 l 2
 1205 147 984 -33 667 -33 c 0
EndSplineSet
EndChar

StartChar: L
Encoding: 44 76 15
Width: 1037
VWidth: 0
Flags: HW
LayerCount: 2
Fore
SplineSet
456 1241 m 5
 456 268 l 5
 941 268 l 1
 941 0 l 1
 148 0 l 5
 148 1241 l 5
 456 1241 l 5
EndSplineSet
EndChar

StartChar: I
Encoding: 41 73 16
Width: 606
VWidth: 0
Flags: HW
LayerCount: 2
Fore
SplineSet
148 0 m 5
 148 1241 l 5
 456 1241 l 5
 456 0 l 5
 148 0 l 5
EndSplineSet
EndChar

StartChar: V
Encoding: 54 86 17
Width: 1316
VWidth: 0
Flags: HW
LayerCount: 2
Fore
SplineSet
664 556 m 1
 949 1241 l 1
 1264 1241 l 1
 667 -58 l 5
 47 1241 l 1
 356 1241 l 1
 664 556 l 1
EndSplineSet
EndChar

StartChar: N
Encoding: 46 78 18
Width: 1363
VWidth: 0
Flags: HW
LayerCount: 2
Fore
SplineSet
456 643 m 1
 456 0 l 1
 148 0 l 1
 148 1311 l 1
 905 603 l 1
 905 1241 l 1
 1213 1241 l 1
 1213 -58 l 1
 456 643 l 1
EndSplineSet
EndChar

StartChar: F
Encoding: 38 70 19
Width: 955
VWidth: 0
Flags: HW
LayerCount: 2
Fore
SplineSet
148 1241 m 1
 871 1241 l 1
 871 985 l 1
 442 985 l 1
 442 747 l 1
 805 747 l 1
 805 495 l 1
 440 495 l 1
 440 0 l 1
 148 0 l 1
 148 1241 l 1
EndSplineSet
EndChar

StartChar: P
Encoding: 48 80 20
Width: 1088
VWidth: 0
Flags: HW
LayerCount: 2
Back
SplineSet
471 1048 m 2
 451 1048 l 1
 451 675 l 1
 475 675 l 2
 594 675 705 758 705 873 c 0
 705 976 626 1048 471 1048 c 2
453 0 m 1
 151 0 l 1
 151 1242 l 1
 517 1242 l 2
 768.499984741 1242 989 1138 989 878 c 0
 989 741 903 618 733 574 c 1
 1149 0 l 1
 805 0 l 1
 455 522 l 1
 453 522 l 1
 453 0 l 1
EndSplineSet
Fore
SplineSet
468 1048 m 2
 448 1048 l 1
 448 653 l 1
 472 653 l 2
 611.5 653 702 742 702 857 c 0
 702 960 638.5 1048 468 1048 c 2
450 0 m 1
 148 0 l 1
 148 1242 l 1
 514 1242 l 2
 788.5 1242 986 1122 986 862 c 0
 986 487.599609375 593.5 495 450 495 c 1
 450 0 l 1
EndSplineSet
EndChar

StartChar: W
Encoding: 55 87 21
Width: 1810
VWidth: 0
Flags: HW
LayerCount: 2
Back
SplineSet
1274.90039062 556 m 1
 1559.90039062 1241 l 1
 1874.90039062 1241 l 1
 1277.90039062 -58 l 1
 657.900390625 1241 l 1
 966.900390625 1241 l 1
 1274.90039062 556 l 1
682 556 m 1
 967 1241 l 1
 1282 1241 l 1
 685 -58 l 1
 65 1241 l 1
 374 1241 l 1
 682 556 l 1
EndSplineSet
Fore
SplineSet
1216.90039062 624 m 1
 1451.90039062 1241 l 1
 1756.90039062 1241 l 1
 1239.90039062 -58 l 1
 908.438476562 654.7890625 l 1
 587 -58 l 1
 47 1241 l 1
 346 1241 l 1
 604 624 l 1
 898.790039062 1310.44433594 l 1
 899.09765625 1310.51660156 l 1
 1216.90039062 624 l 1
EndSplineSet
EndChar

StartChar: J
Encoding: 42 74 22
Width: 1015
VWidth: 0
Flags: HW
LayerCount: 2
Back
SplineSet
665 -33 m 0
 665 202 l 0
 826 202 911 298 911 505 c 2
 911 1241 l 1
 1203 1241 l 1
 1203 498 l 2
 1203 147 982 -33 665 -33 c 0
315.099609375 90 m 6
 315.099609375 350 l 5
 315.099609375 350 530.099609375 202 664.099609375 202 c 5
 689.099609375 -33 l 5
 450.099609375 -33 315.099609375 82.189453125 315.099609375 90 c 6
EndSplineSet
Fore
SplineSet
97 40 m 1
 97 288 l 1
 97 288 222 202 356 202 c 0
 517 202 582 298 582 505 c 2
 582 1241 l 1
 874 1241 l 1
 874 492 l 2
 874 142.842773438 712.900390625 -33 378.299804688 -29.99609375 c 0
 165.50390625 -28.0859375 97 40 97 40 c 1
EndSplineSet
EndChar

StartChar: G
Encoding: 39 71 23
Width: 1449
VWidth: 0
Flags: HW
LayerCount: 2
Fore
SplineSet
94 622 m 0
 94 1026 401 1275 789 1275 c 0
 1017 1275 1210 1174 1210 1174 c 1
 1210 887 l 1
 1101 966 957 1014 820 1014 c 0
 611 1014 404 906 404 622 c 0
 404 339 591 228 800 228 c 0
 880.0703125 228 962.532226562 244.396484375 1039 273.794921875 c 1
 1039 478 l 1
 769 478 l 1
 769 717 l 1
 1326 717 l 1
 1326 116 l 1
 1200.03320312 38.6669921875 1032.03320312 -33 769 -33 c 0
 381 -33 94 219 94 622 c 0
EndSplineSet
EndChar

StartChar: B
Encoding: 34 66 24
Width: 1129
VWidth: 0
Flags: HW
LayerCount: 2
Back
SplineSet
453 727 m 6
 151 727 l 5
 151 0 l 5
 517 0 l 6
 791 0 989 120 989 380 c 4
 989 754 597 727 453 727 c 6
471 194 m 6
 451 194 l 5
 451 589 l 5
 475 589 l 6
 615 589 705 500 705 385 c 4
 705 282 641 194 471 194 c 6
EndSplineSet
Fore
SplineSet
470 1048 m 2
 450 1048 l 1
 450 761 l 1
 474 761 l 2
 613.5 761 731 786 731 901 c 0
 731 1004 640.5 1048 470 1048 c 2
508 194 m 2
 678 194 742 290 742 393 c 0
 742 508 652 597 512 597 c 2
 448 597 l 1
 448 194 l 1
 508 194 l 2
148 0 m 1
 148 1241 l 1
 514 1241 l 2
 788.5 1241 973 1166 973 906 c 0
 973 789.58203125 903.171875 726.303710938 812.095703125 691.997070312 c 1
 928.366210938 651.237304688 1026 564.313476562 1026 380 c 0
 1026 120 818 0 544 0 c 2
 148 0 l 1
EndSplineSet
EndChar

StartChar: Y
Encoding: 57 89 25
Width: 1313
VWidth: 0
Flags: HW
LayerCount: 2
Fore
SplineSet
662 707 m 1
 947 1241 l 1
 1262 1241 l 1
 815.099609375 459.200195312 l 1
 815.099609375 0 l 1
 507.099609375 0 l 1
 507.099609375 462.516601562 l 1
 45 1241 l 1
 354 1241 l 1
 662 707 l 1
EndSplineSet
EndChar

StartChar: a
Encoding: 65 97 26
Width: 990
VWidth: 0
Flags: HW
LayerCount: 2
Fore
SplineSet
101 226.862304688 m 0
 101 65.578125 223.209960938 -25 354.809570312 -25 c 0
 435.118164062 -25 517.19140625 8.95703125 596.684570312 96.6591796875 c 1
 656.192382812 13.537109375 794.59375 -31.748046875 794.748046875 -31.798828125 c 0
 797.653320312 -32.7568359375 l 1
 930.413085938 170.19140625 l 1
 925.012695312 171.6171875 l 0
 924.567382812 171.734375 801 204.797851562 801 300.852539062 c 0
 801 605.456054688 l 0
 801 826.47265625 617.495117188 903 462.265625 903 c 0
 261.510742188 903 110.837890625 787.3828125 110.569335938 787.176757812 c 0
 108.252929688 785.404296875 l 1
 177.930664062 589.891601562 l 1
 182.17578125 592.643554688 l 0
 182.17578125 592.643554688 315.3984375 679 449.56640625 679 c 0
 510.943359375 679 551.16015625 643.953125 551.16015625 554.5859375 c 0
 551.16015625 526.444335938 l 1
 444.76953125 500.87109375 l 0
 215.75 446.169921875 101 343.295898438 101 226.862304688 c 0
550.18359375 218.498046875 m 1
 519.955078125 183.580078125 463.24609375 156 426.12109375 156 c 0
 388.153320312 156 359.693359375 185.202148438 359.693359375 223 c 0
 359.693359375 276.502929688 406.34375 326.096679688 550.18359375 372.5625 c 1
 550.18359375 218.498046875 l 1
EndSplineSet
EndChar

StartChar: b
Encoding: 66 98 27
Width: 1107
VWidth: 0
Flags: HW
LayerCount: 2
Fore
SplineSet
147.3359375 47.7900390625 m 0
 147.555664062 47.6884765625 302.920898438 -24 467.337890625 -24 c 0
 801.856445312 -24 1005 185.547851562 1005 476.317382812 c 0
 1005 739.84375 813.0078125 903 591.638671875 903 c 0
 528.42578125 903 463.573242188 889.91796875 399.803710938 859.342773438 c 1
 399.803710938 1319 l 1
 145 1319 l 1
 145 48.865234375 l 1
 147.3359375 47.7900390625 l 0
742.366210938 463.50390625 m 0
 742.366210938 304.9921875 637.576171875 191 473.209960938 191 c 0
 447.010742188 191 421.081054688 191.1953125 399.803710938 194.474609375 c 1
 399.803710938 620.997070312 l 1
 426.462890625 639.662109375 491.115234375 675 584.787109375 675 c 0
 677.159179688 675 742.366210938 605.487304688 742.366210938 463.50390625 c 0
EndSplineSet
EndChar

StartChar: c
Encoding: 67 99 28
Width: 976
VWidth: 0
Flags: HW
LayerCount: 2
Fore
SplineSet
89 440.008789062 m 0
 89 169.37109375 287.118164062 -25 579.6484375 -25 c 0
 737.2890625 -25 844.990234375 51.5078125 845.3125 51.736328125 c 2
 847 52.931640625 l 1
 847 275 l 1
 830.891601562 275 l 1
 829.942382812 274.4296875 l 2
 769.861328125 238.381835938 705.940429688 197 593.240234375 197 c 0
 430.166015625 197 343.73046875 303.848632812 343.73046875 441.059570312 c 0
 343.73046875 579.11328125 435.853515625 678 589.356445312 678 c 0
 727.541992188 678 840.541992188 589.844726562 840.541992188 589.844726562 c 1
 847 584.813476562 l 1
 847 830.8046875 l 1
 845.643554688 832.001953125 l 2
 844.48828125 833.020507812 764.364257812 903 573.823242188 903 c 0
 298.171875 903 89 716.78515625 89 440.008789062 c 0
EndSplineSet
EndChar

StartChar: d
Encoding: 68 100 29
Width: 1092
VWidth: 0
Flags: HW
LayerCount: 2
Fore
SplineSet
85 452.108398438 m 0
 85 216.931640625 259.947265625 -24 618.73046875 -24 c 0
 781.08203125 -24 941.411132812 47.677734375 941.620117188 47.7705078125 c 0
 944 48.8310546875 l 1
 944 1319 l 1
 689.197265625 1319 l 1
 689.197265625 875.713867188 l 1
 639.775390625 893.678710938 583.081054688 903 530.6484375 903 c 0
 237.530273438 903 85 673.80078125 85 452.108398438 c 0
689.197265625 195.577148438 m 1
 677.552734375 193.950195312 647.673828125 190 629.49609375 190 c 0
 436.557617188 190 340.782226562 312.315429688 340.782226562 443.141601562 c 0
 340.782226562 574.452148438 424.350585938 679 558.051757812 679 c 0
 623.643554688 679 677.502929688 659.428710938 689.197265625 654.868164062 c 1
 689.197265625 195.577148438 l 1
EndSplineSet
EndChar

StartChar: e
Encoding: 69 101 30
Width: 1034
VWidth: 0
Flags: HW
LayerCount: 2
Back
SplineSet
556 697 m 4
 398 697 320 567 320 439 c 4
 320 309 400 181 556 181 c 4
 712 181 792 309 792 439 c 4
 792 567 714 697 556 697 c 4
556 -25 m 4
 286 -25 72 161 72 441 c 4
 72 719 286 903 556 903 c 4
 826 903 1040 719 1040 441 c 4
 1040 161 826 -25 556 -25 c 4
EndSplineSet
Fore
SplineSet
907 249.3203125 m 1
 802.688476562 212.946289062 691.401367188 180.049804688 595.252929688 180.049804688 c 0
 473.180664062 180.049804688 375.509765625 233.077148438 347.493164062 399.342773438 c 1
 918 399.342773438 l 1
 918 457.009765625 l 2
 918 706.333984375 802.486328125 903 526.630859375 903 c 0
 268.717773438 903 90 694.278320312 90 453.1171875 c 0
 90 132.63671875 314.29296875 -23.724609375 574.859375 -23.724609375 c 0
 683.8125 -23.724609375 799.108398438 -2.3857421875 907 51.724609375 c 1
 907 249.3203125 l 1
712.083984375 556 m 1
 357.548828125 556 l 1
 377.125976562 656.293945312 460.107421875 720.791992188 554.706054688 720.791992188 c 0
 636.874023438 720.791992188 702.716796875 672.130859375 712.083984375 556 c 1
EndSplineSet
EndChar

StartChar: f
Encoding: 70 102 31
Width: 777
VWidth: 0
Flags: HW
LayerCount: 2
Fore
SplineSet
199 683.19921875 m 1
 199 -8 l 1
 455 -8 l 1
 455 657.97265625 l 1
 611 657.97265625 l 1
 611 884 l 1
 455 884 l 1
 455 902 l 0
 455 1013.07617188 480.193359375 1032 547 1032 c 0
 569.301757812 1032 598.723632812 1026.1953125 640.44921875 1008.3125 c 1
 709 980.021484375 l 1
 709 1229.82519531 l 1
 675.26171875 1241.796875 l 1
 616.793945312 1259.94140625 563.538085938 1269 514 1269 c 0
 302.294921875 1269 196 1109.33007812 196 902 c 0
 196 884 l 1
 81 884 l 1
 81 683.19921875 l 1
 199 683.19921875 l 1
EndSplineSet
EndChar

StartChar: g
Encoding: 71 103 32
Width: 1091
VWidth: 0
Flags: HW
LayerCount: 2
Fore
SplineSet
696.173828125 253.884765625 m 1
 646.529296875 237.060546875 592.783203125 221 555.217773438 221 c 0
 425.299804688 221 347.69921875 304.678710938 347.69921875 457 c 0
 347.69921875 596.76953125 452.594726562 682 552.28125 682 c 0
 595.873046875 682 668.678710938 664.415039062 696.173828125 625.736328125 c 1
 696.173828125 253.884765625 l 1
251.24609375 -326.594726562 m 2
 251.513671875 -326.725585938 385.86328125 -393 552.28125 -393 c 0
 744.28125 -393 950 -295.681640625 950 -6 c 2
 950 884 l 1
 699.110351562 884 l 1
 699.110351562 803.653320312 l 1
 658.505859375 860.703125 562.428710938 901 503.337890625 901 c 0
 284.72265625 901 88 710.482421875 88 461.12890625 c 0
 88 243.877929688 225.065429688 -8 503.337890625 -8 c 0
 603.889648438 -8 688.377929688 38.4658203125 713.819335938 71.1591796875 c 1
 723.073242188 43.5390625 728 19.3544921875 728 -3 c 0
 728 -113.78125 625.7265625 -166 529.767578125 -166 c 0
 390.037109375 -166 255.051757812 -84.56640625 255.051757812 -84.56640625 c 1
 249 -80.9501953125 l 1
 249 -325.499023438 l 1
 251.24609375 -326.594726562 l 2
EndSplineSet
EndChar

StartChar: h
Encoding: 72 104 33
Width: 1183
VWidth: 0
Flags: HW
LayerCount: 2
Fore
SplineSet
147 1241 m 5
 147 0 l 5
 409 0 l 1
 409 590 l 1
 438.026367188 652.899414062 549.6953125 707.884765625 647.20703125 707.884765625 c 0
 728.752929688 707.884765625 793 669.431640625 793 565 c 2
 793 0 l 1
 1055 0 l 1
 1055 583 l 2
 1055 771.595703125 907.43359375 902.874023438 725.631835938 902.874023438 c 0
 623.198242188 902.874023438 509.897460938 862.564453125 406 764 c 1
 406 1276 l 1
 147 1241 l 5
EndSplineSet
EndChar

StartChar: i
Encoding: 73 105 34
Width: 548
VWidth: 0
Flags: HW
LayerCount: 2
Fore
SplineSet
145 884 m 1
 145 -8 l 1
 398 -8 l 1
 398 884 l 1
 145 884 l 1
113 1136 m 0
 113 1057.02832031 171.671875 981 272 981 c 0
 372.37109375 981 430 1058.07128906 430 1136 c 0
 430 1210.88964844 373.444335938 1291 272 1291 c 0
 170.604492188 1291 113 1211.93164062 113 1136 c 0
EndSplineSet
EndChar

StartChar: j
Encoding: 74 106 35
Width: 602
VWidth: 0
Flags: HW
LayerCount: 2
Fore
SplineSet
64.64453125 -346 m 1
 67.90625 -346 l 2
 401.243164062 -346 453.90625 -153.40234375 453.90625 -29 c 0
 453.90625 884 l 1
 196.90625 884 l 1
 196.90625 6.0322265625 l 0
 196.90625 -98.9716796875 181.03125 -124 23.90625 -124 c 0
 19 -124 l 1
 64.64453125 -346 l 1
164.90625 1135 m 0
 164.90625 1054.96191406 226.6015625 979 324.90625 979 c 0
 425.263671875 979 483.90625 1056.05371094 483.90625 1135 c 0
 483.90625 1213.01660156 425.188476562 1288 324.90625 1288 c 0
 227.688476562 1288 164.90625 1214.1328125 164.90625 1135 c 0
EndSplineSet
EndChar

StartChar: k
Encoding: 75 107 36
Width: 1134
VWidth: 0
Flags: HW
LayerCount: 2
Fore
SplineSet
148 -8 m 1
 402.83984375 -8 l 1
 402.83984375 364.997070312 l 1
 748.0234375 -8 l 1
 1092.11914062 -8 l 1
 600.201171875 461 l 1
 1043.12109375 884 l 1
 706.7421875 884 l 1
 402.83984375 552.071289062 l 1
 402.83984375 1320 l 1
 148 1320 l 1
 148 -8 l 1
EndSplineSet
EndChar

StartChar: l
Encoding: 76 108 37
Width: 729
VWidth: 0
Flags: HW
LayerCount: 2
Fore
SplineSet
139 264.719726562 m 0
 139 73.169921875 278.2265625 -24 425 -24 c 0
 552.240234375 -24 640.908203125 35.4638671875 641.22265625 35.6748046875 c 0
 643 36.8623046875 l 1
 643 252.705078125 l 1
 637.099609375 249.51953125 l 0
 637.099609375 249.51953125 552.590820312 203.963867188 479.946289062 202 c 1
 434.53125 202 394 218.258789062 394 300.70703125 c 0
 394 1276 l 1
 139 1241 l 1
 139 264.719726562 l 0
EndSplineSet
EndChar

StartChar: m
Encoding: 77 109 38
Width: 1637
VWidth: 0
Flags: HW
LayerCount: 2
Fore
SplineSet
135 884 m 1
 135 -8 l 1
 389.916992188 -8 l 1
 389.916992188 591.484375 l 1
 445.630859375 669.5703125 515.37890625 700 585.145507812 700 c 0
 634.712890625 700 691.182617188 669.67578125 691.182617188 565.48046875 c 0
 691.182617188 -8 l 1
 942.8984375 -8 l 1
 942.8984375 595.331054688 l 1
 990.333007812 651.0078125 1074.82421875 700 1151.00976562 700 c 0
 1223.81152344 700 1253.08300781 627.703125 1253.08300781 554.354492188 c 0
 1253.08300781 -8 l 1
 1508 -8 l 1
 1508 570.08203125 l 0
 1508 800.4140625 1356.7421875 902 1188.66796875 902 c 0
 1147.69628906 902 1010.77636719 895.212890625 890.02734375 763.643554688 c 1
 842.291015625 842.1875 779.7265625 901 663.434570312 901 c 0
 609.799804688 901 473.165039062 893.228515625 386.944335938 765.469726562 c 1
 386.944335938 884 l 1
 135 884 l 1
EndSplineSet
EndChar

StartChar: n
Encoding: 78 110 39
Width: 1170
VWidth: 0
Flags: HW
LayerCount: 2
Back
SplineSet
132 875 m 1
 132 0 l 1
 387 0 l 1
 387 590 l 1
 424 643 529.299804688 697 627 697 c 0
 683 697 779 663 779 565 c 2
 779 0 l 1
 1033 0 l 1
 1033 583 l 2
 1033 765 888 903 697 903 c 0
 639 903 456 876 384 764 c 1
 384 875 l 1
 132 875 l 1
EndSplineSet
Fore
SplineSet
133 875 m 1
 133 0 l 1
 395 0 l 1
 395 590 l 1
 424.026367188 652.899414062 535.6953125 707.884765625 633.20703125 707.884765625 c 0
 714.752929688 707.884765625 779 669.431640625 779 565 c 2
 779 0 l 1
 1041 0 l 1
 1041 583 l 2
 1041 771.595703125 893.43359375 902.874023438 711.631835938 902.874023438 c 0
 609.198242188 902.874023438 495.897460938 862.564453125 392 764 c 1
 392 875 l 1
 133 875 l 1
EndSplineSet
EndChar

StartChar: p
Encoding: 80 112 40
Width: 1109
VWidth: 0
Flags: HW
LayerCount: 2
Fore
SplineSet
134 884 m 1
 134 -364 l 1
 389.788085938 -364 l 1
 389.788085938 3.1396484375 l 1
 429.705078125 -12.419921875 483.258789062 -26 547.455078125 -26 c 0
 843.612304688 -26 1004 222.436523438 1004 451.095703125 c 0
 1004 696.594726562 860.825195312 906 621.881835938 906 c 0
 496.603515625 906 412.951171875 827.0078125 389.788085938 802.346679688 c 1
 389.788085938 884 l 1
 134 884 l 1
736.459960938 457.51953125 m 0
 736.459960938 322.356445312 663.916992188 192 526.889648438 192 c 0
 461.00390625 192 413.313476562 213.084960938 389.788085938 225.973632812 c 1
 389.788085938 617.959960938 l 1
 417.77734375 634.782226562 473.982421875 662 545.497070312 662 c 0
 673.415039062 662 736.459960938 571.78125 736.459960938 457.51953125 c 0
EndSplineSet
EndChar

StartChar: q
Encoding: 81 113 41
Width: 1090
VWidth: 0
Flags: HW
LayerCount: 2
Fore
SplineSet
693.196289062 -2.982421875 m 1
 693.196289062 -364 l 1
 948 -364 l 1
 948 884 l 1
 693.196289062 884 l 1
 693.196289062 847.194335938 l 1
 635.286132812 883.19921875 574.510742188 901 515.063476562 901 c 0
 286.784179688 901 88 710.534179688 88 454.143554688 c 0
 88 220.204101562 260.623046875 -26 576.724609375 -26 c 0
 622.603515625 -26 662.926757812 -15.4375 693.196289062 -2.982421875 c 1
693.196289062 229.956054688 m 1
 675.176757812 222.028320312 640.357421875 211 588.469726562 211 c 0
 444.905273438 211 354.548828125 329.137695312 354.548828125 445.088867188 c 0
 354.548828125 590.532226562 449.626953125 669 550.298828125 669 c 0
 593.141601562 669 641.688476562 657.108398438 693.196289062 629.87890625 c 1
 693.196289062 229.956054688 l 1
EndSplineSet
EndChar

StartChar: r
Encoding: 82 114 42
Width: 901
VWidth: 0
Flags: HW
LayerCount: 2
Fore
SplineSet
135 884 m 1
 135 -8 l 1
 387.716796875 -8 l 1
 387.716796875 356.528320312 l 0
 387.716796875 428.021484375 398.223632812 482.119140625 414.325195312 522.04296875 c 1
 451.262695312 616.858398438 513.287109375 636 537.618164062 636 c 0
 560.395507812 636 594.122070312 611.186523438 618.865234375 579.514648438 c 1
 659.147460938 529.434570312 l 1
 823.13671875 753.2421875 l 1
 796.983398438 782.6640625 l 0
 721.357421875 867.366210938 636.400390625 901 575.092773438 901 c 0
 496.634765625 901 433.454101562 858.887695312 387.716796875 806.583984375 c 1
 387.716796875 884 l 1
 135 884 l 1
EndSplineSet
EndChar

StartChar: s
Encoding: 83 115 43
Width: 865
VWidth: 0
Flags: HW
LayerCount: 2
Fore
SplineSet
108.837890625 80.8056640625 m 0
 109.203125 80.5302734375 248.975585938 -25 468.518554688 -25 c 0
 666.06640625 -25 760.245117188 82.1025390625 760.245117188 245.953125 c 0
 760.245117188 327.19921875 724.282226562 416.688476562 600.234375 488.0625 c 0
 419.908203125 595.233398438 l 0
 385.977539062 615.8046875 363.704101562 629.073242188 363.704101562 655.416015625 c 0
 363.704101562 690.756835938 385.244140625 709 443.744140625 709 c 0
 531.71875 709 686.5234375 635.389648438 686.5234375 635.389648438 c 0
 690.885742188 633.309570312 l 1
 738.84765625 815.7734375 l 1
 736.431640625 817.349609375 l 0
 736.149414062 817.534179688 605.541992188 903 437.07421875 903 c 0
 220.651367188 903 112.245117188 781.150390625 112.245117188 638.068359375 c 0
 112.245117188 551.626953125 148.487304688 477.245117188 275.291015625 406.010742188 c 0
 478.072265625 287.712890625 l 1
 515.532226562 264.885742188 524.245117188 242.828125 524.245117188 228.537109375 c 0
 524.245117188 197.360351562 504.283203125 180 445.650390625 180 c 0
 320.797851562 180 136.145507812 279.51953125 136.145507812 279.51953125 c 0
 130.97265625 282.3125 l 1
 107 82.19140625 l 1
 108.837890625 80.8056640625 l 0
EndSplineSet
EndChar

StartChar: t
Encoding: 84 116 44
Width: 855
VWidth: 0
Flags: HW
LayerCount: 2
Back
SplineSet
754 302.216796875 m 1
 748.710432091 298.071717992 634.340744016 203 514 203 c 0
 468.655273438 203 440.583984375 219.7578125 440.583984375 270.796875 c 2
 440.583984375 663.408203125 l 1
 709 663.408203125 l 1
 709 884 l 1
 440.583984375 884 l 1
 440.583984375 1100 l 1
 355.05859375 1100 l 1
 71.7998046875 775.12890625 l 1
 64.9520335653 764.302541831 53 750.009025627 53 724.345703125 c 0
 53 664.874023438 113.455078125 662.907226562 126 662.907226562 c 2
 191 662.907226562 l 1
 191 217.736328125 l 2
 191 60.4697265625 338.38671875 -26 484.891601562 -26 c 0
 655.167926245 -26 752.535003848 69.887001504 754 71.302734375 c 1
 754 302.216796875 l 1
EndSplineSet
Fore
SplineSet
731.791992188 247.700195312 m 1
 692.637695312 210.395507812 619.685546875 186.344726562 562.204101562 186.344726562 c 0
 498.462890625 186.344726562 443.908203125 215.920898438 443.908203125 289.796875 c 2
 443.908203125 680.408203125 l 1
 712.32421875 680.408203125 l 1
 712.32421875 875 l 1
 443.908203125 875 l 1
 443.908203125 1100 l 1
 421.3828125 1100 l 1
 75.1240234375 775.12890625 l 1
 65.2392578125 759.501953125 61 745.434570312 61 733.20703125 c 0
 61 699.602539062 93.0224609375 679.896484375 127.899414062 679.896484375 c 2
 194.32421875 679.907226562 l 1
 194.32421875 217.736328125 l 2
 194.32421875 60.4697265625 341.7109375 -26 488.215820312 -26 c 0
 658.4921875 -26 755.859375 51.88671875 757.32421875 53.302734375 c 1
 757.32421875 247.700195312 l 1
 731.791992188 247.700195312 l 1
EndSplineSet
EndChar

StartChar: u
Encoding: 85 117 45
Width: 1053
VWidth: 0
Flags: HW
LayerCount: 2
Fore
SplineSet
124 304.897460938 m 0
 124 92.619140625 281.190429688 -24 450.8203125 -24 c 0
 523.561523438 -24 596.171875 0.09765625 662.137695312 45.419921875 c 1
 662.137695312 -8 l 1
 913 -8 l 1
 913 884 l 1
 660.189453125 884 l 1
 660.189453125 285.46875 l 1
 619.55859375 237.236328125 543.515625 202 480.034179688 202 c 0
 422.944335938 202 378.7578125 222.474609375 378.7578125 313.305664062 c 0
 378.7578125 884 l 1
 124 884 l 1
 124 304.897460938 l 0
EndSplineSet
EndChar

StartChar: v
Encoding: 86 118 46
Width: 1099
VWidth: 0
Flags: HW
LayerCount: 2
Fore
SplineSet
494.75390625 -8 m 1
 582.220703125 -8 l 1
 1022.95117188 884 l 1
 736.452148438 884 l 1
 540.430664062 385.62890625 l 1
 341.497070312 884 l 1
 57 884 l 1
 494.75390625 -8 l 1
EndSplineSet
EndChar

StartChar: w
Encoding: 87 119 47
Width: 1408
VWidth: 0
Flags: HW
LayerCount: 2
Fore
SplineSet
379.138671875 -8 m 1
 484.634765625 -8 l 1
 698.622070312 573.521484375 l 1
 909.6796875 -8 l 1
 1010.24023438 -8 l 1
 1327.37792969 884 l 1
 1059.86621094 884 l 1
 946.587890625 464.266601562 l 1
 799.423828125 884 l 1
 587.946289062 884 l 1
 448.760742188 474.728515625 l 1
 343.40625 884 l 1
 62 884 l 1
 379.138671875 -8 l 1
EndSplineSet
EndChar

StartChar: x
Encoding: 88 120 48
Width: 1214
VWidth: 0
Flags: HW
LayerCount: 2
Fore
SplineSet
66 -8 m 1
 389.594726562 -8 l 1
 610.69921875 287.008789062 l 1
 843.543945312 -8 l 1
 1147.50195312 -8 l 1
 759.881835938 440.040039062 l 1
 1132.32714844 884 l 1
 813.899414062 884 l 1
 600.697265625 602.96875 l 1
 379.670898438 884 l 1
 74.8212890625 884 l 1
 451.484375 449.958984375 l 1
 66 -8 l 1
EndSplineSet
EndChar

StartChar: y
Encoding: 89 121 49
Width: 1110
VWidth: 0
Flags: HW
LayerCount: 2
Fore
SplineSet
196.576171875 -244 m 1
 473.505859375 -244 l 1
 1036.40136719 885 l 1
 758.930664062 885 l 1
 559.604492188 474.875 l 1
 355.416015625 885 l 1
 53 885 l 1
 419.420898438 233.841796875 l 1
 196.576171875 -244 l 1
EndSplineSet
EndChar

StartChar: z
Encoding: 90 122 50
Width: 960
VWidth: 0
Flags: HW
LayerCount: 2
Fore
SplineSet
112.543945312 -8 m 1
 841.427734375 -8 l 1
 841.427734375 213 l 1
 456.62109375 213 l 1
 860.01171875 797.865234375 l 1
 822.013671875 884 l 1
 125.427734375 884 l 1
 125.427734375 664 l 1
 489.340820312 664 l 1
 87 70.35546875 l 1
 112.543945312 -8 l 1
EndSplineSet
EndChar
